<svg xmlns="http://www.w3.org/2000/svg" viewBox="0 0 240 190" role="img" aria-label="A child checking out and heading home">
  <circle cx="120" cy="96" r="80" fill="#7c9a6f" opacity="0.18"/>
  <ellipse cx="120" cy="160" rx="86" ry="9" fill="#f3eede"/>

  <!-- doorway -->
  <path d="M150 156 V100 a25 25 0 0 1 50 0 V156 Z" fill="#faf8f1" stroke="#1d3b34" stroke-width="3.2" stroke-linejoin="round"/>
  <path d="M158 156 V101 a17 17 0 0 1 34 0 V156 Z" fill="#dfeee9"/>
  <path d="M158 156 V101 a17 17 0 0 1 12 -15 L170 156 Z" fill="#eef4ef" stroke="#1d3b34" stroke-width="2.4" stroke-linejoin="round"/>
  <circle cx="163" cy="126" r="2.4" fill="#1d3b34"/>

  <!-- child -->
  <g stroke-linecap="round" stroke-linejoin="round">
    <rect x="70" y="96" width="20" height="26" rx="8" fill="#2f8f7f"/>
    <path d="M92 124 L86 152" stroke="#1d3b34" stroke-width="9"/>
    <path d="M100 124 L108 150" stroke="#1d3b34" stroke-width="9"/>
    <path d="M82 122 q-2 -30 15 -30 q17 0 15 30 z" fill="#7c9a6f"/>
    <path d="M92 96 L96 120" stroke="#1d3b34" stroke-width="2.6" fill="none"/>
    <path d="M104 100 L118 84" stroke="#E8C9A2" stroke-width="7"/>
    <circle cx="119" cy="83" r="5" fill="#E8C9A2"/>
    <circle cx="97" cy="74" r="14" fill="#E8C9A2"/>
    <path d="M83 73 a14 14 0 0 1 28 0 q-14 -10 -28 0 z" fill="#2A3A36"/>
    <circle cx="94" cy="74" r="1.6" fill="#1a2422"/>
    <circle cx="103" cy="74" r="1.6" fill="#1a2422"/>
    <path d="M94 80 q5 4 10 0" fill="none" stroke="#1a2422" stroke-width="2"/>
  </g>
</svg>
